HIERARCHY
ROOT Hips
{
	OFFSET 0.000000 0.000000 0.000000 
	CHANNELS 6 Xposition Yposition Zposition Yrotation Zrotation Xrotation 
	JOINT Lumbar
	{
		OFFSET 0.000000 0.000000 0.000000 
		CHANNELS 3 Zrotation Xrotation Yrotation
		JOINT Neck
		{
			OFFSET 0.000000 0.445665 0.000000 
			CHANNELS 3 Zrotation Xrotation Yrotation
			End Site
			{
				OFFSET 0.000000 0.227535 0.000000 
			}
		}
		JOINT RightShoulder
		{
			OFFSET 0.019635 0.377685 0.194865 
			CHANNELS 3 Zrotation Xrotation Yrotation
			JOINT RightElbow
			{
				OFFSET 0.000000 -0.243375 0.000000 
				CHANNELS 2 Zrotation Yrotation
				JOINT RightWrist
				{
					OFFSET 0.000000 -0.264825 0.000000 
					CHANNELS 2 Zrotation Xrotation
					End Site
					{
						OFFSET 0.006600 -0.176220 0.000990 
					}
				}
			}
		}
		JOINT LeftShoulder
		{
			OFFSET 0.019635 0.377685 -0.194865 
			CHANNELS 3 Zrotation Xrotation Yrotation
			JOINT LeftElbow
			{
				OFFSET 0.000000 -0.243375 0.000000 
				CHANNELS 2 Zrotation Yrotation
				JOINT LeftWrist
				{
					OFFSET 0.000000 -0.264825 0.000000 
					CHANNELS 2 Zrotation Xrotation
					End Site
					{
						OFFSET 0.006600 -0.176220 -0.000990 
					}
				}
			}
		}
	}
	JOINT RightHip
	{
		OFFSET 0.052140 -0.069960 0.075570 
		CHANNELS 3 Zrotation Xrotation Yrotation
		JOINT RightKnee
		{
			OFFSET 0.000000 -0.402270 0.000000 
			CHANNELS 1 Zrotation
			JOINT RightAnkle
			{
				OFFSET 0.000000 -0.404085 0.000000 
				CHANNELS 3 Zrotation Xrotation Yrotation
				End Site
				{
					OFFSET 0.204105 -0.089430 0.008415 
				}
			}
		}
	}
	JOINT LeftHip
	{
		OFFSET 0.052140 -0.069960 -0.075570 
		CHANNELS 3 Zrotation Xrotation Yrotation
		JOINT LeftKnee
		{
			OFFSET 0.000000 -0.402270 0.000000 
			CHANNELS 1 Zrotation
			JOINT LeftAnkle
			{
				OFFSET 0.000000 -0.404085 0.000000 
				CHANNELS 3 Zrotation Xrotation Yrotation
				End Site
				{
					OFFSET 0.204105 -0.089430 -0.008415 
				}
			}
		}
	}
}
MOTION
Frames: 25
Frame Time: 0.02
-1.10083 0.92405 -0.79954 572.49568 0 -2.06549 0.39027 5.05439 -2.87595 -32.52753 -4.53915 -7.62019 56.87974 1.0962 20.7554 17.07868 99.67835 -16.40575 -7.59344 36.8178 14.1456 -61.71816 96.93745 -119.44888 29.1215 -1.84092 -6.00364 3.30089 -3.97154 -26.44158 3.74025 -4.11614 -4.69707 10.85393 0.13648 7.53771 -8.76152 -1.65635 3.02431 4.10601
-1.1081 0.92435 -0.78723 572.72392 0 -1.98953 0.57321 4.84536 -2.62787 -32.73342 -4.91565 -7.97963 55.84977 0.89532 18.16254 15.71737 97.67724 -14.86852 -7.53792 36.92466 14.52947 -61.71295 97.26011 -119.77066 29.38541 -1.87481 -4.43322 2.49948 -4.43472 -30.1106 2.15472 -3.80625 -4.08774 10.21104 -0.29147 7.75818 -8.86934 -1.20071 3.00558 3.69493
-1.11505 0.92428 -0.77495 572.95451 0 -1.92937 0.72594 4.67351 -2.32359 -32.94272 -5.29374 -8.3303 54.78544 0.67692 15.44567 14.56011 95.55699 -13.7548 -7.42351 37.08197 14.94514 -61.70705 97.64745 -120.05435 29.62725 -1.90787 -2.53972 1.65098 -5.00497 -34.19895 0.26258 -3.46872 -3.40448 9.56771 -0.69052 8.29031 -8.95674 -0.56563 2.94551 3.04896
-1.12214 0.92441 -0.76274 573.19347 0 -1.86765 0.88827 4.48927 -2.05377 -33.15253 -5.66825 -8.68305 53.72977 0.46886 12.86477 13.35214 93.52882 -12.46665 -7.33107 37.21716 15.34923 -61.70103 97.99727 -120.35631 29.8662 -1.94286 -0.79675 0.85201 -5.49885 -38.0616 -1.46848 -3.15363 -2.79971 8.92602 -1.09629 8.64811 -9.05199 -0.01745 2.90677 2.53156
-1.12927 0.92444 -0.75019 573.39394 0 -1.78033 1.06772 4.28469 -1.74611 -33.35292 -6.05765 -9.04583 52.68721 0.2434 9.93928 11.99569 91.31724 -11.09093 -7.25688 37.34731 15.74334 -61.69675 98.38143 -120.65743 30.1611 -1.97185 0.97139 -0.0698 -6.11238 -42.09633 -3.30635 -2.7944 -2.00543 8.27979 -1.53109 9.14417 -9.15954 0.56227 2.85722 1.92091
-1.13624 0.92457 -0.73836 573.67556 0 -1.75141 1.20409 4.13245 -1.50404 -33.57381 -6.4141 -9.38468 51.61588 0.05234 7.70458 10.98586 89.46825 -10.00205 -7.13235 37.50028 16.16364 -61.68882 98.71007 -120.94891 30.33471 -2.01256 2.75809 -0.74418 -6.50096 -45.85217 -4.98343 -2.5215 -1.58592 7.64323 -1.89671 9.42576 -9.23544 1.11588 2.82062 1.44873
-1.14287 0.92507 -0.72839 574.16891 0 -1.87204 1.2331 4.10761 -1.4565 -33.85266 -6.69444 -9.66182 50.46781 -0.03296 7.41791 10.88354 88.65174 -9.60918 -6.87186 37.70734 16.66501 -61.66975 98.86128 -121.23641 30.16569 -2.09035 4.54196 -0.73895 -6.24362 -48.86719 -6.20787 -2.49364 -2.24977 7.02216 -2.09203 9.04459 -9.21369 1.54829 2.827 1.42073
-1.14936 0.92568 -0.71916 574.74561 0 -2.05224 1.21899 4.1356 -1.47702 -34.15146 -6.9386 -9.91433 49.29527 -0.08311 7.83034 11.1188 88.20768 -9.49105 -6.56489 37.9352 17.18851 -61.64726 98.95571 -121.51258 29.87721 -2.1791 6.32719 -0.48035 -5.7554 -51.55895 -7.24653 -2.55404 -3.28839 6.41258 -2.21628 8.43622 -9.16248 1.94787 2.84814 1.53925
-1.15591 0.92624 -0.70964 575.29156 0 -2.21084 1.22212 4.14493 -1.46661 -34.4402 -7.18897 -10.17663 48.13992 -0.15245 7.91712 11.19528 87.59449 -9.24341 -6.28691 38.15162 17.6909 -61.62715 99.08158 -121.78516 29.65198 -2.25983 8.09504 -0.32685 -5.37182 -54.31298 -8.32508 -2.57438 -4.13543 5.80475 -2.36376 7.92759 -9.13369 2.36455 2.86465 1.58847
-1.16249 0.92678 -0.69991 575.80778 0 -2.34806 1.23465 4.13355 -1.45416 -34.73444 -7.4822 -10.44534 46.95747 -0.20891 8.03214 11.30229 86.97416 -9.02838 -5.97406 38.37833 18.24093 -61.60356 99.18637 -122.09408 29.38921 -2.35331 9.94708 -0.2155 -4.99397 -57.44692 -9.60137 -2.59326 -5.06814 5.16747 -2.5477 7.44289 -9.0664 2.77845 2.87181 1.64228
-1.16896 0.9274 -0.6908 576.4054 0 -2.54227 1.2171 4.17661 -1.46296 -35.0204 -7.67808 -10.69404 45.82616 -0.28366 8.25698 11.42279 86.46126 -8.80721 -5.72307 38.58769 18.69677 -61.58637 99.32018 -122.32417 29.17527 -2.4229 11.61729 0.04201 -4.547 -59.6976 -10.41912 -2.63679 -5.91423 4.59429 -2.6402 6.85253 -9.07228 3.18797 2.90141 1.72267
-1.17516 0.92827 -0.68318 577.20985 0 -2.89201 1.13271 4.3636 -1.51307 -35.29167 -7.60917 -10.90106 44.84318 -0.41642 8.60689 11.49903 86.1341 -8.4832 -5.65918 38.74616 18.88521 -61.58817 99.55256 -122.34766 29.13645 -2.42347 12.80451 0.66212 -3.97301 -59.66683 -10.00194 -2.72437 -6.41181 4.19491 -2.48882 6.00537 -9.28919 3.59197 2.999 1.8567
-1.18125 0.92921 -0.67617 578.09286 0 -3.29454 1.01859 4.6022 -1.58252 -35.55144 -7.44441 -11.08736 43.91276 -0.56884 9.04493 11.57605 85.90616 -8.14485 -5.65874 38.8861 18.97841 -61.59645 99.81493 -122.29101 29.14902 -2.39971 13.80304 1.41672 -3.33551 -58.74097 -9.13144 -2.83405 -6.81125 3.85962 -2.2496 5.06187 -9.58033 3.99192 3.11716 2.0107
-1.18737 0.93009 -0.66889 578.9383 0 -3.66456 0.9146 4.81264 -1.64399 -35.80789 -7.32667 -11.27828 42.95741 -0.71285 9.44832 11.65068 85.64695 -7.82329 -5.62608 39.03258 19.11613 -61.60146 100.06029 -122.26555 29.13079 -2.38728 14.87404 2.09644 -2.72172 -58.17201 -8.47533 -2.93566 -7.2697 3.49531 -2.0565 4.17457 -9.83661 4.39388 3.21971 2.14609
-1.19355 0.9311 -0.66157 579.79463 0 -4.07291 0.82355 5.04461 -1.70482 -36.1012 -7.19307 -11.48878 42.00453 -0.85351 9.85428 11.74514 85.34393 -7.46849 -5.60524 39.18663 19.24892 -61.60772 100.31802 -122.26103 29.13944 -2.37396 16.00289 2.84379 -2.1217 -57.80489 -7.7748 -3.03305 -7.68733 3.13128 -1.83486 3.22763 -10.09731 4.79454 3.3489 2.32633
-1.19959 0.93187 -0.65448 580.64575 0 -4.41286 0.69883 5.24356 -1.77015 -36.31465 -7.07018 -11.65365 41.06065 -1.00618 10.26537 11.7949 85.14883 -7.17554 -5.5765 39.32164 19.3697 -61.61295 100.55782 -122.19492 29.10634 -2.3567 16.96449 3.47798 -1.4809 -56.80612 -7.06498 -3.142 -8.15304 2.78135 -1.65258 2.38432 -10.36593 5.1968 3.42766 2.41649
-1.20528 0.93195 -0.64783 581.46383 0 -4.55335 0.49079 5.33624 -1.84791 -36.31123 -7.00084 -11.69987 40.11818 -1.18827 10.67615 11.71199 85.24416 -7.05847 -5.50173 39.39624 19.47516 -61.61384 100.74116 -121.97069 28.94174 -2.33351 17.52518 3.77364 -0.74315 -54.30719 -6.41019 -3.28857 -8.84865 2.45802 -1.60207 1.85657 -10.64634 5.60915 3.35885 2.24855
-1.21084 0.93178 -0.64139 582.27359 0 -4.62242 0.24982 5.39418 -1.92854 -36.22767 -6.94567 -11.7006 39.18552 -1.3817 11.08327 11.58406 85.43995 -7.00265 -5.41858 39.45441 19.5729 -61.61345 100.9057 -121.68872 28.73444 -2.30737 17.92085 3.94818 0.03279 -51.20092 -5.76766 -3.44343 -9.58028 2.14602 -1.59419 1.43633 -10.93099 6.02262 3.23898 1.98934
-1.21646 0.93173 -0.63488 583.08614 0 -4.72241 0.02238 5.46925 -2.00413 -36.18006 -6.8839 -11.72076 38.25486 -1.56948 11.48507 11.48091 85.57664 -6.91605 -5.34537 39.52824 19.67737 -61.61361 101.07878 -121.43834 28.54999 -2.28315 18.38286 4.17245 0.7896 -48.35723 -5.14097 -3.58687 -10.2459 1.82656 -1.5662 0.96431 -11.20834 6.43253 3.1448 1.77422
-1.22205 0.93168 -0.6283 583.90496 0 -4.83089 -0.20068 5.54015 -2.09526 -36.13371 -6.81952 -11.74537 37.29688 -1.76024 11.9237 11.35967 85.7728 -6.84063 -5.24894 39.56731 19.76413 -61.61419 101.2526 -121.1627 28.35357 -2.25551 18.87649 4.42416 1.55441 -45.53666 -4.4103 -3.76374 -11.11888 1.519 -1.53854 0.5016 -11.51023 6.85477 3.04155 1.54911
-1.22768 0.93155 -0.62189 584.70861 0 -4.90388 -0.43951 5.61122 -2.15563 -36.06626 -6.76509 -11.75028 36.39978 -1.94696 12.27874 11.26549 85.86884 -6.75781 -5.19745 39.67455 19.88818 -61.61346 101.4204 -120.92684 28.17019 -2.23477 19.26545 4.58796 2.31307 -42.53812 -3.90207 -3.8723 -11.56854 1.18866 -1.52108 0.04572 -11.76194 7.25212 2.94395 1.32253
-1.23338 0.93126 -0.61591 585.46417 0 -4.89729 -0.72007 5.68744 -2.11969 -35.95696 -6.73617 -11.71101 35.64885 -2.12185 12.44444 11.25568 85.65226 -6.62886 -5.2776 39.9788 20.10914 -61.60981 101.5727 -120.81692 28.04225 -2.23253 19.42453 4.53973 3.0237 -39.18173 -4.03476 -3.7932 -10.85243 0.79128 -1.52512 -0.41164 -11.86653 7.5766 2.88151 1.11682
-1.23914 0.93088 -0.61007 586.20577 0 -4.85702 -1.01385 5.76553 -2.05434 -35.82994 -6.71702 -11.65374 34.96262 -2.29174 12.51897 11.27496 85.33311 -6.49235 -5.40212 40.35134 20.36997 -61.60476 101.71997 -120.74913 27.92679 -2.23776 19.48153 4.40656 3.72959 -35.6774 -4.38866 -3.64463 -9.70887 0.37064 -1.53759 -0.86639 -11.92187 7.87682 2.82511 0.91225
-1.2449 0.93053 -0.60415 586.9589 0 -4.83125 -1.29753 5.84493 -2.00964 -35.71304 -6.69288 -11.60542 34.25886 -2.46247 12.60693 11.2817 85.06795 -6.36643 -5.50215 40.68967 20.61806 -61.60011 101.87183 -120.6611 27.79968 -2.24046 19.57373 4.31053 4.45272 -32.25159 -4.62284 -3.52546 -8.75158 -0.03893 -1.54434 -1.32577 -12.00382 8.19062 2.76122 0.7052
-1.25051 0.93021 -0.59832 587.69037 0 -4.80633 -1.60038 5.91382 -1.9353 -35.58418 -6.67135 -11.55231 33.50382 -2.63983 12.80923 11.28372 84.77512 -6.21259 -5.61938 41.0411 20.84255 -61.59653 102.01383 -120.57539 27.69707 -2.23915 19.70676 4.21549 5.11739 -28.74463 -4.93402 -3.41473 -7.82263 -0.45065 -1.56099 -1.76712 -12.06657 8.49334 2.71562 0.50291
